{
	"asset":{
		"generator":"Khronos glTF Blender I/O v4.4.56",
		"version":"2.0"
	},
	"scene":0,
	"scenes":[
		{
			"name":"Scene",
			"nodes":[
				0
			]
		}
	],
	"nodes":[
		{
			"mesh":0,
			"name":"\u7acb\u65b9\u4f53.006",
			"scale":[
				0.06457042694091797,
				1,
				1
			],
			"translation":[
				0.01570582389831543,
				-0.012355923652648926,
				0.0061779022216796875
			]
		}
	],
	"animations":[
		{
			"channels":[
				{
					"sampler":0,
					"target":{
						"node":0,
						"path":"rotation"
					}
				}
			],
			"name":"\u7acb\u65b9\u4f53.006\u30a2\u30af\u30b7\u30e7\u30f3",
			"samplers":[
				{
					"input":25,
					"interpolation":"LINEAR",
					"output":26
				}
			]
		}
	],
	"materials":[
		{
			"doubleSided":true,
			"name":"Material",
			"pbrMetallicRoughness":{
				"baseColorFactor":[
					0.7991064786911011,
					0.05780676007270813,
					0.01849992573261261,
					1
				],
				"metallicFactor":0,
				"roughnessFactor":0.5
			}
		},
		{
			"doubleSided":true,
			"name":"\u30de\u30c6\u30ea\u30a2\u30eb",
			"pbrMetallicRoughness":{
				"baseColorFactor":[
					0.7990988492965698,
					0.05780539661645889,
					0.018500253558158875,
					1
				],
				"metallicFactor":0,
				"roughnessFactor":0.5
			}
		},
		{
			"doubleSided":true,
			"name":"\u30de\u30c6\u30ea\u30a2\u30eb.001",
			"pbrMetallicRoughness":{
				"baseColorFactor":[
					0.7991064786911011,
					0.056129686534404755,
					0.0176415853202343,
					1
				],
				"metallicFactor":0,
				"roughnessFactor":0.5
			}
		},
		{
			"doubleSided":true,
			"name":"\u30de\u30c6\u30ea\u30a2\u30eb.002",
			"pbrMetallicRoughness":{
				"baseColorFactor":[
					0.7990988492965698,
					0.05780539661645889,
					0.018500253558158875,
					1
				],
				"metallicFactor":0,
				"roughnessFactor":0.5
			}
		}
	],
	"meshes":[
		{
			"name":"\u7acb\u65b9\u4f53.006",
			"primitives":[
				{
					"attributes":{
						"POSITION":0,
						"NORMAL":1,
						"TEXCOORD_0":2,
						"TEXCOORD_1":3
					},
					"indices":4
				},
				{
					"attributes":{
						"POSITION":5,
						"NORMAL":6,
						"TEXCOORD_0":7,
						"TEXCOORD_1":8
					},
					"indices":9,
					"material":0
				},
				{
					"attributes":{
						"POSITION":10,
						"NORMAL":11,
						"TEXCOORD_0":12,
						"TEXCOORD_1":13
					},
					"indices":14,
					"material":1
				},
				{
					"attributes":{
						"POSITION":15,
						"NORMAL":16,
						"TEXCOORD_0":17,
						"TEXCOORD_1":18
					},
					"indices":19,
					"material":2
				},
				{
					"attributes":{
						"POSITION":20,
						"NORMAL":21,
						"TEXCOORD_0":22,
						"TEXCOORD_1":23
					},
					"indices":24,
					"material":3
				}
			]
		}
	],
	"accessors":[
		{
			"bufferView":0,
			"componentType":5126,
			"count":1305,
			"max":[
				1.2296785116195679,
				1.0195996761322021,
				1.140839695930481
			],
			"min":[
				-0.777072548866272,
				-2.3552067279815674,
				-1.5582255125045776
			],
			"type":"VEC3"
		},
		{
			"bufferView":1,
			"componentType":5126,
			"count":1305,
			"type":"VEC3"
		},
		{
			"bufferView":2,
			"componentType":5126,
			"count":1305,
			"type":"VEC2"
		},
		{
			"bufferView":3,
			"componentType":5126,
			"count":1305,
			"type":"VEC2"
		},
		{
			"bufferView":4,
			"componentType":5123,
			"count":2484,
			"type":"SCALAR"
		},
		{
			"bufferView":5,
			"componentType":5126,
			"count":174,
			"max":[
				0.02698710560798645,
				2.466564178466797,
				1.549294114112854
			],
			"min":[
				-2.0306389331817627,
				-0.7413904666900635,
				-0.5085477828979492
			],
			"type":"VEC3"
		},
		{
			"bufferView":6,
			"componentType":5126,
			"count":174,
			"type":"VEC3"
		},
		{
			"bufferView":7,
			"componentType":5126,
			"count":174,
			"type":"VEC2"
		},
		{
			"bufferView":8,
			"componentType":5126,
			"count":174,
			"type":"VEC2"
		},
		{
			"bufferView":9,
			"componentType":5123,
			"count":324,
			"type":"SCALAR"
		},
		{
			"bufferView":10,
			"componentType":5126,
			"count":284,
			"max":[
				-0.000177664594957605,
				1.496011734008789,
				1.042154312133789
			],
			"min":[
				-2.0306389331817627,
				-0.9744899868965149,
				-1.0223469734191895
			],
			"type":"VEC3"
		},
		{
			"bufferView":11,
			"componentType":5126,
			"count":284,
			"type":"VEC3"
		},
		{
			"bufferView":12,
			"componentType":5126,
			"count":284,
			"type":"VEC2"
		},
		{
			"bufferView":13,
			"componentType":5126,
			"count":284,
			"type":"VEC2"
		},
		{
			"bufferView":14,
			"componentType":5123,
			"count":546,
			"type":"SCALAR"
		},
		{
			"bufferView":15,
			"componentType":5126,
			"count":385,
			"max":[
				-0.000177664594957605,
				-0.49173814058303833,
				1.627842664718628
			],
			"min":[
				-2.0306389331817627,
				-2.1075823307037354,
				-0.7885552644729614
			],
			"type":"VEC3"
		},
		{
			"bufferView":16,
			"componentType":5126,
			"count":385,
			"type":"VEC3"
		},
		{
			"bufferView":17,
			"componentType":5126,
			"count":385,
			"type":"VEC2"
		},
		{
			"bufferView":18,
			"componentType":5126,
			"count":385,
			"type":"VEC2"
		},
		{
			"bufferView":19,
			"componentType":5123,
			"count":738,
			"type":"SCALAR"
		},
		{
			"bufferView":20,
			"componentType":5126,
			"count":432,
			"max":[
				-0.000177664594957605,
				0.5648820996284485,
				0.039054155349731445
			],
			"min":[
				-2.0306389331817627,
				-1.2422678470611572,
				-1.622902274131775
			],
			"type":"VEC3"
		},
		{
			"bufferView":21,
			"componentType":5126,
			"count":432,
			"type":"VEC3"
		},
		{
			"bufferView":22,
			"componentType":5126,
			"count":432,
			"type":"VEC2"
		},
		{
			"bufferView":23,
			"componentType":5126,
			"count":432,
			"type":"VEC2"
		},
		{
			"bufferView":24,
			"componentType":5123,
			"count":840,
			"type":"SCALAR"
		},
		{
			"bufferView":25,
			"componentType":5126,
			"count":151,
			"max":[
				6.25
			],
			"min":[
				0
			],
			"type":"SCALAR"
		},
		{
			"bufferView":26,
			"componentType":5126,
			"count":151,
			"type":"VEC4"
		}
	],
	"bufferViews":[
		{
			"buffer":0,
			"byteLength":15660,
			"byteOffset":0,
			"target":34962
		},
		{
			"buffer":0,
			"byteLength":15660,
			"byteOffset":15660,
			"target":34962
		},
		{
			"buffer":0,
			"byteLength":10440,
			"byteOffset":31320,
			"target":34962
		},
		{
			"buffer":0,
			"byteLength":10440,
			"byteOffset":41760,
			"target":34962
		},
		{
			"buffer":0,
			"byteLength":4968,
			"byteOffset":52200,
			"target":34963
		},
		{
			"buffer":0,
			"byteLength":2088,
			"byteOffset":57168,
			"target":34962
		},
		{
			"buffer":0,
			"byteLength":2088,
			"byteOffset":59256,
			"target":34962
		},
		{
			"buffer":0,
			"byteLength":1392,
			"byteOffset":61344,
			"target":34962
		},
		{
			"buffer":0,
			"byteLength":1392,
			"byteOffset":62736,
			"target":34962
		},
		{
			"buffer":0,
			"byteLength":648,
			"byteOffset":64128,
			"target":34963
		},
		{
			"buffer":0,
			"byteLength":3408,
			"byteOffset":64776,
			"target":34962
		},
		{
			"buffer":0,
			"byteLength":3408,
			"byteOffset":68184,
			"target":34962
		},
		{
			"buffer":0,
			"byteLength":2272,
			"byteOffset":71592,
			"target":34962
		},
		{
			"buffer":0,
			"byteLength":2272,
			"byteOffset":73864,
			"target":34962
		},
		{
			"buffer":0,
			"byteLength":1092,
			"byteOffset":76136,
			"target":34963
		},
		{
			"buffer":0,
			"byteLength":4620,
			"byteOffset":77228,
			"target":34962
		},
		{
			"buffer":0,
			"byteLength":4620,
			"byteOffset":81848,
			"target":34962
		},
		{
			"buffer":0,
			"byteLength":3080,
			"byteOffset":86468,
			"target":34962
		},
		{
			"buffer":0,
			"byteLength":3080,
			"byteOffset":89548,
			"target":34962
		},
		{
			"buffer":0,
			"byteLength":1476,
			"byteOffset":92628,
			"target":34963
		},
		{
			"buffer":0,
			"byteLength":5184,
			"byteOffset":94104,
			"target":34962
		},
		{
			"buffer":0,
			"byteLength":5184,
			"byteOffset":99288,
			"target":34962
		},
		{
			"buffer":0,
			"byteLength":3456,
			"byteOffset":104472,
			"target":34962
		},
		{
			"buffer":0,
			"byteLength":3456,
			"byteOffset":107928,
			"target":34962
		},
		{
			"buffer":0,
			"byteLength":1680,
			"byteOffset":111384,
			"target":34963
		},
		{
			"buffer":0,
			"byteLength":604,
			"byteOffset":113064
		},
		{
			"buffer":0,
			"byteLength":2416,
			"byteOffset":113668
		}
	],
	"buffers":[
		{
			"byteLength":116084,
			"uri":"weave.bin"
		}
	]
}
